<svg width="22" height="24" viewBox="0 0 22 24" fill="none" xmlns="http://www.w3.org/2000/svg">
<path d="M21.1823 0C21.6692 0.0334585 22.0589 0.477358 21.9919 0.989258C21.5481 4.3621 21.2007 6.95478 20.6901 8.96973C20.1763 10.9976 19.481 12.5157 18.2917 13.7051C17.11 14.8868 15.5022 15.6827 13.2946 16.3945C11.0898 17.1054 8.20763 17.7549 4.43136 18.5996C4.28874 18.6315 4.14925 18.625 4.02022 18.5908C3.72856 19.1728 3.46081 19.7452 3.22335 20.2852C2.81626 21.2109 2.49639 22.0298 2.27999 22.6162C2.17202 22.9088 2.08908 23.1432 2.0339 23.3037C2.00632 23.3839 1.98609 23.4471 1.97237 23.4883C1.96577 23.5081 1.96102 23.5232 1.95772 23.5332C1.95616 23.538 1.95458 23.5426 1.95382 23.5449L1.95284 23.5459C1.84204 23.889 1.47457 24.0788 1.13155 23.9688C0.78815 23.8578 0.59971 23.4891 0.710654 23.1455L0.708701 23.1445L0.711631 23.1406C0.712578 23.1375 0.71278 23.1324 0.71456 23.127C0.718432 23.1151 0.724775 23.0973 0.732139 23.0752C0.747141 23.0301 0.769541 22.9633 0.798545 22.8789C0.856629 22.7099 0.941644 22.465 1.05343 22.1621C1.27699 21.5563 1.60621 20.7126 2.02608 19.7578C2.44189 18.8124 2.95235 17.7469 3.54562 16.6914L3.85323 15.0498C4.30803 12.6677 4.71587 10.7294 5.18233 9.14453C5.80657 7.02389 6.55736 5.4594 7.74288 4.27539C8.92904 3.09084 10.4876 2.3486 12.5954 1.74121C14.695 1.13623 17.416 0.646121 20.9694 0.0126953L21.1823 0ZM20.6179 1.40234C17.332 1.98938 14.8654 2.44615 12.9567 2.99609C10.9455 3.57567 9.62923 4.23999 8.66671 5.20117C7.7038 6.16286 7.03188 7.48596 6.43526 9.5127C6.08009 10.7193 5.75741 12.1482 5.41476 13.8643C5.4695 13.7956 5.52427 13.7273 5.57979 13.6602C7.08076 11.844 9.19067 10.199 10.8982 9.02148C11.7567 8.42939 12.5241 7.94876 13.0769 7.61523C13.3534 7.44842 13.5772 7.31831 13.7321 7.22949C13.809 7.18542 13.8694 7.1521 13.9108 7.12891C13.9311 7.11756 13.9477 7.10765 13.9587 7.10156C13.9641 7.09858 13.9704 7.09634 13.9733 7.09473L13.9753 7.09082L13.9773 7.09277L14.0993 7.03906C14.3895 6.94966 14.7122 7.07487 14.864 7.35156C15.0151 7.62849 14.9463 7.96765 14.7146 8.16406L14.6052 8.23926L14.6042 8.23828L14.6023 8.23926C14.6001 8.24044 14.5969 8.24267 14.5925 8.24512C14.5833 8.2502 14.569 8.25821 14.5505 8.26855C14.5127 8.28975 14.4548 8.32131 14.3816 8.36328C14.2343 8.44767 14.0189 8.57317 13.7517 8.73438C13.2166 9.05722 12.4735 9.52573 11.6413 10.0996C9.9666 11.2546 7.97217 12.8158 6.58663 14.4922C5.93074 15.2858 5.32699 16.2097 4.78487 17.1592C4.78361 17.166 4.78321 17.1729 4.78194 17.1797C8.26014 16.4004 10.8796 15.7986 12.8933 15.1494C15.0248 14.4621 16.4023 13.7448 17.3679 12.7793C18.325 11.8218 18.9417 10.5577 19.4255 8.64844C19.8846 6.83635 20.2077 4.5083 20.6179 1.40234Z" fill="black"/>
</svg>
